#!OML:ASF I:\Actors\actors\Patient Classification 2\Patient 1\Session 1\actor1.ASF
:FULLY-SPECIFIED
:DEGREES
174
root -0.583004 18.3653 4.79168 1.11908 10.474 -2.23498
lowerback 18.2353 1.59749 3.72302
upperback 0.997508 3.30397 4.24743
thorax -9.21527 1.52782 1.64889
lowerneck -14.8556 -7.52773 -6.45899
upperneck 23.2921 -9.80767 3.61332
head 10.4137 -4.64269 1.01713
rclavicle -3.10104e-014 -1.11319e-014
rhumerus -3.63748 -3.12414 -43.7564
rradius 120.68
rwrist -5.75303
rhand -16.0243 -12.744
rfingers 7.12502
rthumb 10.1767 -42.4779
lclavicle -3.10104e-014 -1.11319e-014
lhumerus 25.4469 -37.5112 72.7014
lradius 101.863
lwrist 31.8302
lhand -14.4628 -32.2186
lfingers 7.12502
lthumb 11.6828 -2.56432
rfemur -5.14056 -9.40367 14.971
rtibia 21.0653
rfoot -21.6248 -7.64799
rtoes -14.7994
lfemur -18.313 -0.740908 -11.386
ltibia 36.3238
lfoot -19.2838 1.39983
ltoes -55.8327
175
root -0.558299 18.3526 4.79522 1.16612 9.82259 -2.20111
lowerback 18.2401 1.48066 3.66901
upperback 1.01947 3.16005 4.47669
thorax -9.21044 1.46737 1.96672
lowerneck -14.9514 -7.25052 -6.42668
upperneck 23.329 -9.30152 3.15035
head 10.3904 -4.46137 0.920044
rclavicle 2.38542e-015 -2.38542e-014
rhumerus -6.40276 -2.03193 -44.0515
rradius 123.332
rwrist -5.24754
rhand -15.9231 -12.1619
rfingers 7.12502
rthumb 10.2743 -41.891
lclavicle 2.38542e-015 -2.38542e-014
lhumerus 24.6629 -36.8333 73.1409
lradius 101.944
lwrist 31.5914
lhand -14.5298 -32.339
lfingers 7.12502
lthumb 11.6182 -2.68112
rfemur -5.47659 -9.16604 14.8447
rtibia 21.4649
rfoot -21.5349 -7.30279
rtoes -15.1047
lfemur -18.3717 -0.518231 -11.5358
ltibia 36.6594
lfoot -19.5584 1.96829
ltoes -55.8578
176
root -0.532149 18.342 4.79867 1.22525 9.18094 -2.13567
lowerback 18.1992 1.37778 3.59464
upperback 1.08192 3.02091 4.67207
thorax -9.13287 1.4101 2.25882
lowerneck -15.0356 -6.96167 -6.25847
upperneck 23.2948 -8.80895 2.67424
head 10.3349 -4.27683 0.795483
rclavicle -1.94809e-014 3.49861e-014
rhumerus -8.95456 -1.20526 -44.4014
rradius 125.455
rwrist -5.14125
rhand -15.9661 -10.9704
rfingers 7.12502
rthumb 10.2328 -40.7015
lclavicle -1.94809e-014 3.49861e-014
lhumerus 24.0229 -36.2129 73.4152
lradius 102.04
lwrist 31.538
lhand -14.6624 -32.4925
lfingers 7.12502
lthumb 11.4904 -2.82744
rfemur -5.78238 -8.91192 14.6841
rtibia 21.7749
rfoot -21.378 -7.01691
rtoes -15.4896
lfemur -18.3674 -0.444 -11.6819
ltibia 36.9546
lfoot -19.922 2.18659
ltoes -55.8969
177
root -0.505419 18.3339 4.80243 1.27407 8.56938 -2.07797
lowerback 18.0294 1.28304 3.43979
upperback 1.25048 2.86523 4.91891
thorax -8.87174 1.35132 2.65787
lowerneck -15.2409 -6.65138 -6.04973
upperneck 23.2526 -8.2815 2.16561
head 10.2983 -4.07479 0.653471
rclavicle -4.37326e-015 -4.29375e-014
rhumerus -11.1777 -0.482033 -44.745
rradius 127.068
rwrist -5.03355
rhand -16.1236 -9.83241
rfingers 7.12502
rthumb 10.0809 -39.5709
lclavicle -4.37326e-015 -4.29375e-014
lhumerus 23.509 -35.4948 73.6169
lradius 102.204
lwrist 31.5608
lhand -14.7086 -32.5529
lfingers 7.12502
lthumb 11.4458 -2.88534
rfemur -6.03649 -8.63676 14.5278
rtibia 22.0135
rfoot -21.2189 -6.74356
rtoes -15.8736
lfemur -18.3398 -0.323568 -11.8185
ltibia 37.2122
lfoot -20.2526 2.32272
ltoes -55.6009
178
root -0.481399 18.3276 4.8053 1.28798 7.98125 -2.07934
lowerback 18.1582 1.21759 3.57784
upperback 1.255 2.82574 5.03696
thorax -8.93782 1.3285 2.71736
lowerneck -15.4417 -6.41522 -5.85972
upperneck 23.4106 -7.88925 1.76702
head 10.3491 -3.92277 0.530835
rclavicle 5.04913e-014 9.54166e-015
rhumerus -13.6214 0.44945 -45.1804
rradius 128.581
rwrist -4.19262
rhand -16.6411 -10.8656
rfingers 7.12502
rthumb 9.58167 -40.6277
lclavicle 5.04913e-014 9.54166e-015
lhumerus 22.8021 -35.1516 73.8523
lradius 102.457
lwrist 31.5625
lhand -14.7023 -32.366
lfingers 7.12502
lthumb 11.4519 -2.69875
rfemur -6.22345 -8.31171 14.4426
rtibia 22.184
rfoot -21.1213 -6.47596
rtoes -15.9442
lfemur -18.3051 -0.0785989 -11.9018
ltibia 37.4404
lfoot -20.5143 2.56278
ltoes -55.6033
179
root -0.458317 18.3212 4.80682 1.29065 7.42954 -2.10841
lowerback 18.5886 1.15361 3.94572
upperback 1.07706 2.86008 5.04319
thorax -9.35795 1.32366 2.50363
lowerneck -15.5314 -6.23461 -5.68066
upperneck 23.6606 -7.60464 1.45825
head 10.4236 -3.81199 0.428091
rclavicle 2.06736e-014 -2.8625e-014
rhumerus -16.2033 1.32343 -45.6272
rradius 129.722
rwrist -3.07893
rhand -17.3601 -11.0584
rfingers 7.12502
rthumb 8.88789 -40.8512
lclavicle 2.06736e-014 -2.8625e-014
lhumerus 21.9453 -35.1118 74.0995
lradius 102.704
lwrist 31.5428
lhand -14.6437 -32.2032
lfingers 7.12502
lthumb 11.5084 -2.53908
rfemur -6.37039 -8.03419 14.388
rtibia 22.3017
rfoot -21.0108 -6.20838
rtoes -15.8529
lfemur -18.2643 0.155015 -11.951
ltibia 37.655
lfoot -20.7667 2.7663
ltoes -55.521
180
root -0.436252 18.314 4.80675 1.26908 6.95252 -2.15622
lowerback 18.8479 1.08835 4.15294
upperback 1.05462 2.85147 5.17375
thorax -9.52546 1.31123 2.52973
lowerneck -15.6075 -6.04524 -5.52968
upperneck 23.6419 -7.28648 1.12232
head 10.3984 -3.69283 0.32887
rclavicle 3.18055e-014 -3.33958e-014
rhumerus -18.296 1.83894 -45.8429
rradius 130.747
rwrist -2.67853
rhand -17.5748 -11.0883
rfingers 7.12502
rthumb 8.68067 -40.8898
lclavicle 3.18055e-014 -3.33958e-014
lhumerus 21.4475 -34.8673 74.247
lradius 102.839
lwrist 31.5088
lhand -14.5004 -32.1604
lfingers 7.12502
lthumb 11.6466 -2.50413
rfemur -6.48387 -7.86276 14.3514
rtibia 22.4114
rfoot -20.8606 -5.94992
rtoes -15.9005
lfemur -18.2262 0.404891 -11.9766
ltibia 37.8675
lfoot -20.9478 2.88541
ltoes -55.3615
